<?xml version="1.0" encoding="iso-8859-1"?>
<!-- Uploaded to: SVG Repo, www.svgrepo.com, Generator: SVG Repo Mixer Tools -->
<svg version="1.1" id="Layer_1" xmlns="http://www.w3.org/2000/svg" xmlns:xlink="http://www.w3.org/1999/xlink" 
	 viewBox="0 0 460 460" xml:space="preserve">
<g id="XMLID_225_">
	<path id="XMLID_226_" style="fill:#084B63;" d="M230,0C102.974,0,0,102.975,0,230c0,99.309,62.939,183.917,151.104,216.111
		l299.859-280.163C423.225,70.089,334.798,0,230,0z"/>
	<path id="XMLID_227_" style="fill:#06384A;" d="M450.953,165.953L350,65v73l-40-63L90,385l61.112,61.112
		C175.717,455.096,202.285,460,230,460c127.026,0,230-102.975,230-230C460,207.772,456.836,186.285,450.953,165.953z"/>
	<polygon id="XMLID_228_" style="fill:#82C8DB;" points="90,75 90,385 180,385 205,230 180,75 	"/>
	<g id="XMLID_231_">
		<polygon id="XMLID_230_" style="fill:#2089B0;" points="270,75 260,230 270,385 310,385 310,75 		"/>
	</g>
	<g id="XMLID_235_">
		<polygon id="XMLID_233_" style="fill:#FFFFFF;" points="270,95 260,230 270,365 290,365 290,95 		"/>
	</g>
	<g id="XMLID_238_">
		<rect id="XMLID_237_" x="180" y="75" style="fill:#62B3CD;" width="90" height="310"/>
	</g>
	<polygon id="XMLID_239_" style="fill:#FFFFFF;" points="110,95 110,165 180,165 200.789,135 180,95 	"/>
	<g id="XMLID_242_">
		<rect id="XMLID_241_" x="180" y="95" style="fill:#D1EEF4;" width="70" height="70"/>
	</g>
	<polygon id="XMLID_243_" style="fill:#2089B0;" points="350,65 358.333,87.222 350,94.008 341.667,87.222 	"/>
	<polygon id="XMLID_244_" style="fill:#FFFFFF;" points="370,118.333 358.333,87.222 341.667,87.222 330,118.333 350,132.102 	"/>
	<polygon id="XMLID_245_" style="fill:#F77A20;" points="350,382.994 344.286,194.33 350,118.333 370,118.333 370,371.667 	"/>
	<polygon id="XMLID_307_" style="fill:#F7B93F;" points="330,371.667 330,118.333 350,118.333 350,382.994 	"/>
	<rect id="XMLID_308_" x="330" y="371.667" style="fill:#D93722;" width="40" height="13.333"/>
</g>
</svg>