<!DOCTYPE svg PUBLIC "-//W3C//DTD SVG 1.1//EN" "http://www.w3.org/Graphics/SVG/1.1/DTD/svg11.dtd">
<!-- Uploaded to: SVG Repo, www.svgrepo.com, Transformed by: SVG Repo Mixer Tools -->
<svg fill="#ffffff" height="800px" width="800px" version="1.1" id="Capa_1" xmlns="http://www.w3.org/2000/svg" xmlns:xlink="http://www.w3.org/1999/xlink" viewBox="0 0 60 60" xml:space="preserve" stroke="#ffffff">
<g id="SVGRepo_bgCarrier" stroke-width="0"/>
<g id="SVGRepo_tracerCarrier" stroke-linecap="round" stroke-linejoin="round"/>
<g id="SVGRepo_iconCarrier"> <path d="M42,12H18C8.075,12,0,20.075,0,30s8.075,18,18,18h24c9.925,0,18-8.075,18-18S51.925,12,42,12z M18,38c0,0.553-0.447,1-1,1 s-1-0.447-1-1V22c0-0.553,0.447-1,1-1s1,0.447,1,1V38z M42,43c-7.168,0-13-5.832-13-13s5.832-13,13-13s13,5.832,13,13 S49.168,43,42,43z"/> </g>
</svg>