<svg xmlns="http://www.w3.org/2000/svg" version="1.1" xmlns:xlink="http://www.w3.org/1999/xlink" xmlns:svgjs="http://svgjs.dev/svgjs" width="1000" height="623" viewBox="0 0 1000 623"><g transform="matrix(1,0,0,1,-0.6060553970395972,0.2522267206477409)"><svg viewBox="0 0 396 247" data-background-color="#b10dc9" preserveAspectRatio="xMidYMid meet" height="623" width="1000" xmlns="http://www.w3.org/2000/svg" xmlns:xlink="http://www.w3.org/1999/xlink"><g id="tight-bounds" transform="matrix(1,0,0,1,0.2399979587148664,-0.09999999999999432)"><svg viewBox="0 0 395.52 247.2" height="247.2" width="395.52"><g><svg></svg></g><g><svg viewBox="0 0 395.52 247.2" height="247.2" width="395.52"><g><g><path xmlns="http://www.w3.org/2000/svg" d="M194.063 247.19c-12.03-0.501-22.828-1.546-32.393-3.133-9.607-1.546-18.86-4.094-27.757-7.644-8.939-3.509-16.437-7.937-22.494-13.283-6.057-5.347-11.111-12.197-15.163-20.551-4.01-8.396-6.475-18.087-7.393-29.073 0-1.963 1.003-3.091 3.007-3.383 0.627 0.209 1.65 0.313 3.07 0.313 8.48 0 21.345-0.209 38.597-0.627 17.21-0.418 30.054-0.627 38.534-0.626 2.13 0 3.801 0.689 5.012 2.067 1.253 1.378 2.256 3.07 3.008 5.076 0.752 1.963 1.671 3.947 2.757 5.952 1.086 2.005 2.924 3.697 5.514 5.075 2.59 1.378 5.931 2.068 10.025 2.068 4.971 0 9.378-1.42 13.22-4.261 3.801-2.799 5.702-6.579 5.702-11.341 0-3.175-1.629-6.099-4.887-8.772-3.258-2.632-7.561-4.783-12.908-6.453-5.347-1.713-10.443-3.154-15.288-4.324-2.974-0.718-5.994-1.373-9.062-1.964l130.709 0c0.523 3.623 0.784 7.411 0.784 11.363 0 9.691-1.253 18.525-3.759 26.504-2.464 7.937-5.744 14.662-9.837 20.175-4.094 5.514-9.19 10.401-15.288 14.662-6.14 4.302-12.343 7.728-18.609 10.275-6.266 2.548-13.367 4.699-21.304 6.454-7.978 1.713-15.309 2.945-21.992 3.697-6.683 0.794-13.952 1.378-21.805 1.754zM90.68 83.531c0-12.239 2.235-23.225 6.704-32.957 4.511-9.733 10.38-17.69 17.607-23.872 7.226-6.182 15.789-11.32 25.689-15.414 9.9-4.135 19.904-7.059 30.012-8.772 10.109-1.671 20.551-2.506 31.329-2.506 28.655 0 51.504 5.305 68.546 15.915 6.224 6.224 10.798 10.944 13.722 14.16 2.882 3.216 5.681 6.955 8.396 11.216 2.715 4.302 4.595 8.521 5.639 12.656 1.086 4.135 1.838 9.211 2.256 15.226l-5.514 5.513c-20.927 0.794-44.382 1.19-70.364 1.191-3.258 0-5.89-0.355-7.894-1.065-2.005-0.71-3.342-1.629-4.01-2.757-0.627-1.128-1.274-2.297-1.943-3.509-0.668-1.211-1.295-2.381-1.879-3.509-0.543-1.128-1.713-2.047-3.509-2.757-1.754-0.71-4.114-1.065-7.08-1.065-0.835 0-2.151 0.146-3.948 0.439-1.754 0.292-3.843 0.773-6.265 1.441-2.381 0.668-4.449 1.692-6.203 3.07-1.713 1.378-2.569 2.987-2.569 4.825 0 2.256 1.149 4.302 3.446 6.14 2.297 1.838 4.72 3.154 7.268 3.947 2.548 0.835 5.702 1.734 9.461 2.695 3.801 0.961 6.161 1.587 7.08 1.879 17.339 4.4 29.21 7.477 35.615 9.233l-150.733 0c-0.573-3.594-0.859-7.381-0.859-11.363z" fill="#ffffff" fill-rule="nonzero" stroke="none" stroke-width="1" stroke-linecap="butt" stroke-linejoin="miter" stroke-miterlimit="10" stroke-dasharray="" stroke-dashoffset="0" font-family="none" font-weight="none" font-size="none" text-anchor="none" style="mix-blend-mode: normal" data-fill-palette-color="tertiary"></path></g></g><g transform="matrix(1,0,0,1,2.842170943040401e-14,101.37915727993325)"><svg viewBox="0 0 395.5199999999999 44.4416854401335" height="44.4416854401335" width="395.5199999999999"><g><svg viewBox="0 0 395.5199999999999 44.4416854401335" height="44.4416854401335" width="395.5199999999999"><g><svg viewBox="0 0 395.5199999999999 44.4416854401335" height="44.4416854401335" width="395.5199999999999"><g><svg viewBox="0 0 395.5199999999999 44.4416854401335" height="44.4416854401335" width="395.5199999999999"><g><svg viewBox="0 0 395.5199999999999 44.4416854401335" height="44.4416854401335" width="395.5199999999999"><g><svg viewBox="0 0 395.5199999999999 44.4416854401335" height="44.4416854401335" width="395.5199999999999"><g transform="matrix(1,0,0,1,0,0)"><svg width="395.5199999999999" viewBox="0.9800000190734863 -37.9900016784668 351.0899963378906 39.45000076293945" height="44.4416854401335" data-palette-color="#ffffff"><path d="M17.77 1.46L17.77 1.46Q14.89 1.34 12.6 0.96 10.3 0.59 8.17-0.26 6.03-1.1 4.58-2.38 3.13-3.66 2.16-5.66 1.2-7.67 0.98-10.3L0.98-10.3Q0.98-10.77 1.46-10.84L1.46-10.84Q1.61-10.79 1.95-10.79L1.95-10.79Q3.98-10.79 8.11-10.89 12.23-10.99 14.26-10.99L14.26-10.99Q14.77-10.99 15.06-10.66 15.36-10.33 15.54-9.85 15.72-9.38 15.98-8.9 16.24-8.42 16.86-8.09 17.48-7.76 18.46-7.76L18.46-7.76Q19.65-7.76 20.57-8.44 21.48-9.11 21.48-10.25L21.48-10.25Q21.48-11.01 20.7-11.65 19.92-12.28 18.64-12.68 17.36-13.09 16.2-13.37 15.04-13.65 13.82-13.85 12.6-14.06 12.4-14.11L12.4-14.11Q6.47-15.72 3.87-18.12 1.27-20.51 1.27-24.66L1.27-24.66Q1.27-27.59 2.34-29.92 3.42-32.25 5.15-33.73 6.88-35.21 9.25-36.19 11.62-37.18 14.04-37.59 16.46-37.99 19.04-37.99L19.04-37.99Q25.9-37.99 29.98-35.45L29.98-35.45Q31.47-33.96 32.17-33.19 32.86-32.42 33.51-31.4 34.16-30.37 34.41-29.38 34.67-28.39 34.77-26.95L34.77-26.95 33.89-26.07Q28.88-25.88 22.66-25.88L22.66-25.88Q21.88-25.88 21.4-26.05 20.92-26.22 20.76-26.49 20.61-26.76 20.45-27.05 20.29-27.34 20.15-27.61 20.02-27.88 19.59-28.05 19.17-28.22 18.46-28.22L18.46-28.22Q18.26-28.22 17.83-28.15 17.41-28.08 16.83-27.92 16.26-27.76 15.84-27.43 15.43-27.1 15.43-26.66L15.43-26.66Q15.43-26.12 15.98-25.68 16.53-25.24 17.14-25.05 17.75-24.85 18.65-24.62 19.56-24.39 19.78-24.32L19.78-24.32Q25.1-22.97 26.12-22.66L26.12-22.66Q31.47-20.97 33.69-18.24L33.69-18.24Q35.74-15.7 35.74-11.87L35.74-11.87Q35.74-9.55 35.14-7.64 34.55-5.74 33.57-4.42 32.59-3.1 31.13-2.08 29.66-1.05 28.16-0.44 26.66 0.17 24.76 0.59 22.85 1 21.25 1.18 19.65 1.37 17.77 1.46ZM35.94-24.71L35.94-24.71 35.94-33.5 64.35-33.5Q64.74-33.42 64.84-33.19 64.94-32.96 64.94-32.52L64.94-32.52 64.94-24.71Q64.89-24.12 64.26-24.12L64.26-24.12 57.32-24.12 57.32-1.66Q57.32-1.64 57.3-1.54 57.27-1.44 57.27-1.42 57.27-1.39 57.25-1.32 57.22-1.25 57.2-1.22 57.18-1.2 57.15-1.14 57.13-1.07 57.09-1.06 57.05-1.05 56.99-1.01 56.93-0.98 56.87-0.95 56.81-0.93 56.72-0.92 56.64-0.9 56.54-0.88L56.54-0.88 54.98-0.88Q51.85-0.88 51.85-1.07L51.85-1.07Q51.66-1.07 51.27-1.05 50.88-1.03 50.68-1.03L50.68-1.03 48.73-1.03Q48.17-1.03 47.13-1 46.09-0.98 45.51-0.98L45.51-0.98 44.14-0.98 43.16-1.66 43.16-6.93Q43.19-8.35 43.37-12.99 43.55-17.63 43.55-20.31L43.55-20.31 43.55-20.95Q43.55-21.14 43.58-21.56 43.6-21.97 43.6-22.17L43.6-22.17Q43.6-22.39 43.58-23.06 43.55-23.73 43.55-23.93L43.55-23.93 37.45-23.93Q36.91-23.93 36.42-24.11 35.94-24.29 35.94-24.71ZM79.88-0.93L66.5-0.93 66.5-33.01Q66.52-33.2 66.89-33.36 67.26-33.52 67.33-33.59L67.33-33.59 80.46-33.59 80.46-1.81Q80.34-1.29 80.23-1.11 80.12-0.93 79.88-0.93L79.88-0.93ZM100.68-0.2L100.68-0.2Q96.6-0.2 93.35-1.57 90.1-2.95 88.03-5.4 85.95-7.84 84.87-11.1 83.78-14.36 83.78-18.21L83.78-18.21 83.78-18.55Q83.81-18.73 83.87-19.4 83.93-20.07 83.94-20.28 83.95-20.48 84.03-21.07 84.1-21.66 84.15-21.92 84.2-22.19 84.28-22.71 84.37-23.22 84.48-23.55 84.59-23.88 84.73-24.34 84.88-24.8 85.05-25.22 85.22-25.63 85.44-26.07L85.44-26.07 85.44-26.03Q86.56-28.37 88.27-30.08 89.98-31.79 92.03-32.73 94.08-33.67 96.23-34.09 98.38-34.52 100.77-34.52L100.77-34.52Q103.8-34.52 106.24-33.92 108.68-33.33 110.3-32.32 111.91-31.32 113.05-29.9 114.2-28.47 114.79-26.95 115.37-25.44 115.62-23.68L115.62-23.68 115.62-21.58Q115.54-21.24 115.25-21.06 114.96-20.87 114.62-20.84 114.27-20.8 113.66-20.8L113.66-20.8 103.22-20.8 103.22-22.9Q103.09-23.73 102.51-24.41 101.92-25.1 101.07-25.1L101.07-25.1Q100.31-25.1 99.74-24.78 99.16-24.46 98.83-23.94 98.5-23.41 98.3-22.72 98.09-22.02 98.03-21.25 97.97-20.48 97.93-19.69 97.89-18.9 97.94-18.19L97.94-18.19Q97.94-17.7 97.94-17.48L97.94-17.48 97.94-14.75Q97.94-14.14 98-13.56 98.06-12.99 98.3-12.08 98.53-11.18 99.11-10.62 99.7-10.06 100.58-10.06L100.58-10.06Q101.51-10.06 101.96-10.84 102.41-11.62 102.71-12.72 103.02-13.82 103.41-14.21L103.41-14.21Q104.39-14.21 106.34-14.18 108.29-14.16 109.27-14.16L109.27-14.16Q109.95-14.16 111.3-14.18 112.64-14.21 113.32-14.21L113.32-14.21 115.13-14.21Q115.93-14.21 116.01-13.23L116.01-13.23 116.01-12.3Q115.47-7.45 112.42-4.47 109.37-1.49 104.78-0.68L104.78-0.68 104.78-0.54Q103.14-0.2 100.68-0.2ZM129.87-0.88L119.57-0.88Q119.13-1.61 118.98-1.9L118.98-1.9 118.98-33.98 129.78-33.98Q129.85-33.98 130.17-34 130.48-34.01 130.65-34 130.82-33.98 131.13-33.96 131.44-33.94 131.63-33.87 131.83-33.81 132.03-33.7 132.24-33.59 132.38-33.4 132.51-33.2 132.56-32.96L132.56-32.96 132.56-22.12Q133.36-23.73 134.82-26.76 136.27-29.79 136.95-31.15L136.95-31.15 138.15-33.72 140.47-33.79Q140.96-33.79 141.95-33.74 142.93-33.69 143.4-33.69L143.4-33.69 145.25-33.69Q145.45-33.69 145.83-33.72 146.21-33.74 146.38-33.74L146.38-33.74 147.79-33.74Q147.89-33.74 148.13-33.79L148.13-33.79Q152.09-33.79 152.09-33.2L152.09-33.2Q152.09-32.86 151.65-32.28L151.65-32.28Q150.53-30.49 147.87-25.77 145.2-21.04 143.57-18.65L143.57-18.65 153.12-2.2Q153.12-2.17 153.12-2.03 153.12-1.88 153.12-1.83 153.12-1.78 153.1-1.67 153.09-1.56 153.07-1.5 153.04-1.44 153.01-1.35 152.97-1.27 152.91-1.21 152.85-1.15 152.77-1.07L152.77-1.07Q150.48-1.22 145.94-1.22L145.94-1.22Q145.33-1.22 144.06-1.2 142.79-1.17 142.18-1.17L142.18-1.17 138.86-1.17 138.86-1.86Q138.47-2.51 137.17-4.44 135.88-6.37 135.29-7.47L135.29-7.47 132.56-12.7 132.56-1.86Q132.22-0.88 129.87-0.88L129.87-0.88ZM153.11-33.69L166.03-33.69 169.86-21.63Q171.72-26.59 173.33-31.54L173.33-31.54Q173.38-31.74 173.62-32.28 173.86-32.81 173.91-33.15L173.91-33.15Q174.11-33.74 176.55-33.74L176.55-33.74Q176.72-33.74 177.03-33.72 177.33-33.69 177.53-33.69L177.53-33.69Q181.51-33.74 186.12-33.79L186.12-33.79Q186.71-33.72 186.95-32.59L186.95-32.59 175.87-12.52 176.26-10.89Q176.26-9.47 176.31-6.57 176.35-3.66 176.35-2.54L176.35-2.54 176.35-1.81Q176.26-1.46 175.98-1.25 175.7-1.03 175.2-0.96 174.69-0.9 174.32-0.89 173.94-0.88 173.24-0.9 172.55-0.93 172.3-0.93L172.3-0.93 162.98-0.93 162.19-1.95 162.19-12.16 156.55-24.19 153.94-27.86Q151.94-31.86 151.94-33.01L151.94-33.01Q151.94-33.69 153.11-33.69L153.11-33.69ZM189.1 0.68L188.02 0.1 188.02-10.94Q187.97-16.99 188.41-34.03L188.41-34.03 188.41-36.04Q188.41-36.57 188.61-36.67L188.61-36.67 205.4-36.67Q205.65-36.67 206.39-34.81 207.14-32.96 208.2-30.04 209.26-27.12 209.7-26.03L209.7-26.03 213.12-17.09 213.12-26.56Q213.12-27.78 213.18-31.04 213.24-34.3 213.22-36.13L213.22-36.13Q213.22-36.82 217.12-36.82L217.12-36.82Q218.34-36.82 220.47-36.77 222.59-36.72 223.08-36.72L223.08-36.72 224.94-36.72Q225.33-36.72 225.33-36.57L225.33-36.57Q225.47-29.79 225.47-17.14L225.47-17.14 225.47-0.2Q225.3 0.44 223.91 0.44L223.91 0.44 223.28 0.44Q222.01 0.44 219.54 0.49 217.07 0.54 215.81 0.54L215.81 0.54 208.63 0.54Q208.29 0.42 207.21-2.54L207.21-2.54Q206.06-5.74 203.79-11.79 201.52-17.85 201.25-18.55L201.25-18.55Q201.25-17.11 201.23-14.26 201.21-11.4 201.21-9.96L201.21-9.96Q201.21-8.89 201.25-6.74 201.3-4.59 201.3-3.52L201.3-3.52 201.3-0.44Q201.3 0.68 200.33 0.68L200.33 0.68 189.1 0.68ZM225.33-36.52L225.33-36.62 225.33-36.52ZM228.69-16.21L228.69-17.68 228.64-18.21Q229.11-22.19 229.52-23.75L229.52-23.75Q230.48-27.42 232.94-29.88L232.94-29.88 233.53-30.47Q234.7-31.84 237.09-32.81L237.09-32.81 238.02-32.81Q240.41-33.81 245.88-34.67L245.88-34.67Q247.25-34.67 248.75-34.46 250.25-34.25 252.08-33.78 253.91-33.3 255.61-32.26 257.31-31.23 258.43-29.79L258.43-29.79 258.43-29.1Q262.43-24.1 262.43-17.87L262.43-17.87Q262.43-10.86 259.21-6.45L259.21-6.45 258.23-5.22Q257.11-3.83 255.44-2.83 253.77-1.83 251.89-1.31 250.01-0.78 248.29-0.56 246.56-0.34 244.86-0.34L244.86-0.34Q242.34-0.34 240.06-0.94 237.78-1.54 235.79-2.81 233.8-4.08 232.28-5.93 230.77-7.79 229.83-10.41 228.89-13.04 228.69-16.21L228.69-16.21ZM242.12-18.55L242.12-17.48Q242.12-8.89 245.39-8.89L245.39-8.89Q246.3-8.89 246.97-9.23 247.64-9.57 248.05-10.28 248.47-10.99 248.74-11.72 249.01-12.45 249.12-13.55 249.23-14.65 249.26-15.48 249.3-16.31 249.3-17.48L249.3-17.48 249.3-18.36Q249.3-19.63 249.15-20.8 249.01-21.97 248.65-23.16 248.3-24.34 247.57-25.06 246.83-25.78 245.78-25.78L245.78-25.78Q242.12-25.78 242.12-18.55L242.12-18.55ZM263.41-24.71L263.41-24.71 263.41-33.5 291.83-33.5Q292.22-33.42 292.31-33.19 292.41-32.96 292.41-32.52L292.41-32.52 292.41-24.71Q292.36-24.12 291.73-24.12L291.73-24.12 284.79-24.12 284.79-1.66Q284.79-1.64 284.77-1.54 284.75-1.44 284.75-1.42 284.75-1.39 284.72-1.32 284.7-1.25 284.67-1.22 284.65-1.2 284.62-1.14 284.6-1.07 284.56-1.06 284.53-1.05 284.46-1.01 284.4-0.98 284.34-0.95 284.28-0.93 284.2-0.92 284.11-0.9 284.01-0.88L284.01-0.88 282.45-0.88Q279.33-0.88 279.33-1.07L279.33-1.07Q279.13-1.07 278.74-1.05 278.35-1.03 278.15-1.03L278.15-1.03 276.2-1.03Q275.64-1.03 274.6-1 273.56-0.98 272.98-0.98L272.98-0.98 271.61-0.98 270.63-1.66 270.63-6.93Q270.66-8.35 270.84-12.99 271.02-17.63 271.02-20.31L271.02-20.31 271.02-20.95Q271.02-21.14 271.05-21.56 271.07-21.97 271.07-22.17L271.07-22.17Q271.07-22.39 271.05-23.06 271.02-23.73 271.02-23.93L271.02-23.93 264.92-23.93Q264.38-23.93 263.9-24.11 263.41-24.29 263.41-24.71ZM294.26-1.81L294.26-31.54Q294.26-33.01 294.39-33.25L294.39-33.25Q294.61-33.59 295.09-33.59L295.09-33.59 295.68-33.59Q296.07-33.59 296.22-33.54L296.22-33.54 297.49-33.54Q299.95-33.54 304.95-33.67 309.94-33.79 312.43-33.79L312.43-33.79 318.92-33.79Q319.56-33.72 319.56-33.15L319.56-33.15 319.56-25Q319.53-24.85 319.47-24.74 319.41-24.63 319.37-24.6 319.34-24.56 319.14-24.43 318.95-24.29 318.87-24.22L318.87-24.22 307.55-24.22 307.55-21.19 308.62-21.19Q310.04-21.19 312.94-21.29 315.85-21.39 317.41-21.39L317.41-21.39Q318.09-21.39 318.34-21.12 318.58-20.85 318.58-20.36L318.58-20.36Q318.58-20.24 318.53-19.95 318.48-19.65 318.48-19.53L318.48-19.53 318.48-18.6Q318.48-18.51 318.51-18.2 318.53-17.9 318.53-17.68L318.53-17.68 318.53-16.99Q318.53-16.46 318.58-15.92 318.63-15.38 318.63-14.99L318.63-14.99 318.63-14.36Q318.51-14.06 318.43-13.96 318.36-13.87 318.19-13.87L318.19-13.87 318.19-13.92Q317.29-13.92 315.08-13.79 312.87-13.67 311.55-13.67L311.55-13.67 307.64-13.67 307.64-10.55Q307.84-10.55 308.23-10.52 308.62-10.5 308.82-10.5L308.82-10.5Q309.91-10.5 312.06-10.57 314.21-10.64 315.16-10.64L315.16-10.64 318.29-10.64Q319.56-10.64 319.9-10.35L319.9-10.35Q320.02-10.21 320.09-10.06L320.09-10.06 320.09-2.25Q320.09-1.73 319.9-1.46 319.7-1.2 319.17-1.17L319.17-1.17 295-1.17 294.26-1.81ZM341.77-24.12L341.77-24.12Q341.11-24.12 340.7-24.32 340.28-24.51 340.04-24.8 339.79-25.1 339.49-25.39 339.18-25.68 338.52-25.88 337.87-26.07 336.84-26.07L336.84-26.07Q336.52-26.07 336.07-26.01 335.62-25.95 335.08-25.68 334.55-25.42 334.55-25L334.55-25Q334.55-24.54 335-24.21 335.45-23.88 336.02-23.74 336.6-23.61 337.32-23.43 338.04-23.24 338.33-23.1L338.33-23.1 341.92-22.22Q343.51-21.78 344.77-21.29 346.04-20.8 347.47-19.96 348.9-19.12 349.85-18.09 350.81-17.07 351.44-15.52 352.07-13.96 352.07-12.11L352.07-12.11Q352.07-9.86 351.49-8.11L351.49-8.11 351.49-8.15Q350.98-6.59 350.05-5.36 349.12-4.13 347.85-3.31 346.58-2.49 345.29-1.94 343.99-1.39 342.3-1.06 340.6-0.73 339.27-0.57 337.94-0.42 336.21-0.29L336.21-0.29Q328.52-0.68 325.9-2.73L325.9-2.73 325.9-3.03Q323.68-4.69 322.62-6.64 321.56-8.59 321.36-11.04L321.36-11.04Q321.36-11.62 321.9-11.62L321.9-11.62Q322.05-11.62 322.34-11.6 322.63-11.57 322.78-11.57L322.78-11.57 325.27-11.57Q325.61-11.62 326.24-11.62L326.24-11.62 326.88-11.62Q327.07-11.62 327.22-11.57L327.22-11.57Q328.64-11.62 332.06-11.62L332.06-11.62 333.18-11.62Q333.67-11.62 333.93-11.33 334.2-11.04 334.36-10.61 334.52-10.18 334.73-9.75 334.94-9.33 335.47-9.03 336.01-8.74 336.89-8.74L336.89-8.74Q337.84-8.74 338.61-9.24 339.38-9.74 339.38-10.69L339.38-10.69Q339.38-11.13 338.96-11.52 338.55-11.91 337.72-12.23 336.89-12.55 336.24-12.74 335.6-12.94 334.5-13.21 333.4-13.48 333.08-13.57L333.08-13.57 331.62-13.57Q326.32-15.14 323.99-17.54 321.65-19.95 321.65-23.63L321.65-23.63Q321.65-26.07 322.57-28.03 323.49-29.98 324.99-31.23 326.49-32.47 328.52-33.31 330.54-34.16 332.64-34.51 334.74-34.86 336.99-34.86L336.99-34.86Q340.97-34.86 344.37-33.53 347.78-32.2 349.54-30.08L349.54-30.08Q350.17-29.44 350.56-28.47 350.95-27.49 351.06-26.92 351.17-26.34 351.34-25L351.34-25 350.66-24.02 346.51-24.02Q345.82-24.02 344.24-24.07 342.65-24.12 341.77-24.12Z" opacity="1" transform="matrix(1,0,0,1,0,0)" fill="#ffffff" class="undefined-text-0" data-fill-palette-color="primary" id="text-0"></path></svg></g></svg></g></svg></g></svg></g></svg></g></svg></g></svg></g></svg></g><defs></defs></svg><rect width="395.52" height="247.2" fill="none" stroke="none" visibility="hidden"></rect></g></svg></g></svg>