<?xml version="1.0" encoding="utf-8"?>
<!-- Uploaded to: SVG Repo, www.svgrepo.com, Generator: SVG Repo Mixer Tools -->
<svg fill="#000000" height="800px" width="800px" version="1.2" baseProfile="tiny" id="Layer_1" xmlns="http://www.w3.org/2000/svg" xmlns:xlink="http://www.w3.org/1999/xlink"
	  viewBox="0 0 256 256" xml:space="preserve">
<path id="XMLID_2_" d="M211.4,35.1l13.7-15.8l-9.1-7.9L178.2,55c-0.6-0.4-1.2-0.7-1.9-1c-0.5-0.1-0.5-0.1-0.5-0.1
	s-66.2-39.3-111.4,23C32.4,121.1,53.6,157.3,8,194.5c-9.8,7.5-9.6,22.8-1.1,30.3c19.5,14.9,85.3,43.7,147.4,1.8
	c62.6-42.3,59.9-92.5,53.3-123.5c-3.2-14.4-9.6-30.1-19.9-40.7l21.8-25.2c19,19.8,21.2,76.5,10,125.2c-10,43.5-31.7,78-54.6,91.2
	c30.9,1.5,76-33.1,87.9-84.6C264.8,116.6,241.8,47.9,211.4,35.1z"/>
</svg>