<?xml version="1.0" encoding="iso-8859-1"?>
<!-- Uploaded to: SVG Repo, www.svgrepo.com, Generator: SVG Repo Mixer Tools -->
<svg fill="#000000" height="800px" width="800px" version="1.1" id="Layer_1" xmlns="http://www.w3.org/2000/svg" xmlns:xlink="http://www.w3.org/1999/xlink" 
	 viewBox="0 0 512 512" xml:space="preserve">
<g>
	<g>
		<path d="M397.36,281.924c-26.851-25.28-41.639-56.655-41.639-88.343v-10.526c0-51.398-36.556-95.618-84.166-103.346
			c0.545-9.031,3.37-17.796,8.652-25.438c7.721-11.175,19.651-18.702,33.592-21.202c9.055-1.627,15.08-10.281,13.458-19.336
			c-1.627-9.055-10.33-15.123-19.336-13.458c-22.742,4.078-42.317,16.528-55.12,35.056c-9.266,13.402-14.253,28.848-14.739,44.741
			c-18.253,3.299-35.414,11.504-49.333,24.108c-20.909,18.919-32.904,45.939-32.904,74.125v15.275
			c0,31.694-14.787,63.069-41.639,88.349c-87.505,82.394-27.869,229.501,91.602,229.501c16.908,0,33.722-3.362,49.985-10.059
			C390.338,556.784,504.008,382.361,397.36,281.924z M205.817,444.832c-59.21,0-89.897-73.026-45.939-114.414
			c6.696-6.317,17.249-5.992,23.544,0.705c6.312,6.696,5.992,17.238-0.705,23.544c-21.912,20.651-6.17,56.849,23.1,56.849
			c9.202,0,16.658,7.456,16.658,16.658S215.019,444.832,205.817,444.832z"/>
	</g>
</g>
</svg>