<?xml version="1.0" encoding="utf-8"?>

<!DOCTYPE svg PUBLIC "-//W3C//DTD SVG 1.1//EN" "http://www.w3.org/Graphics/SVG/1.1/DTD/svg11.dtd">
<!-- Uploaded to: SVG Repo, www.svgrepo.com, Generator: SVG Repo Mixer Tools -->
<svg height="800px" width="800px" version="1.1" id="_x32_" xmlns="http://www.w3.org/2000/svg" xmlns:xlink="http://www.w3.org/1999/xlink" 
	 viewBox="0 0 512 512"  xml:space="preserve">
<style type="text/css">
	.st0{fill:#000000;}
</style>
<g>
	<path class="st0" d="M482.851,145.725c-2.05-6.736-8.044-11.483-15.064-11.934l-29.43-1.883c-4.721-0.292-9.097-2.572-12.067-6.259
		c-2.97-3.695-4.244-8.46-3.519-13.146l3.085-19.926c0.91-5.87-1.352-11.802-5.949-15.576c-4.588-3.792-10.839-4.871-16.434-2.855
		l-40.64,14.649c-4.686,1.688-9.856,1.228-14.162-1.256c-4.288-2.484-7.285-6.728-8.16-11.625l-7.63-42.522
		c-1.061-5.861-5.118-10.732-10.696-12.809c-5.569-2.095-11.829-1.088-16.478,2.652l-15.701,12.615
		c-3.695,2.971-8.452,4.253-13.137,3.528c-4.676-0.725-8.832-3.369-11.466-7.32l-16.337-24.54
		c-3.898-5.852-11.015-8.673-17.866-7.073c-6.843,1.6-11.978,7.276-12.88,14.25l-8.408,64.747l107.578,62.103l107.578,62.112
		l51.884-39.64C482.542,159.746,484.893,152.462,482.851,145.725z"/>
	<path class="st0" d="M205.052,100.781c-60.856,6.904-192.065,93.92-175.135,216.349c12.385,89.579,43.538,162.512,80.173,183.658
		c36.625,21.146,115.366,11.66,199.137-22.392c114.501-46.553,124.26-203.69,99.808-259.844L205.052,100.781z M103.742,251.394
		c7.294-12.642,19.113-19.493,26.389-15.294c7.258,4.199,7.24,17.849-0.062,30.49c-7.302,12.651-19.113,19.484-26.371,15.293
		C96.422,277.685,96.44,264.036,103.742,251.394z M130.688,384.477c-7.303,12.641-19.104,19.493-26.38,15.293
		c-7.275-4.2-7.249-17.849,0.054-30.491c7.302-12.65,19.112-19.493,26.388-15.293C138.016,358.186,137.989,371.835,130.688,384.477z
		 M194.25,193.755c7.302-12.633,19.122-19.493,26.388-15.294c7.267,4.199,7.24,17.858-0.052,30.5
		c-7.303,12.642-19.122,19.493-26.389,15.302C186.93,220.063,186.956,206.397,194.25,193.755z M224.864,443.424
		c-7.302,12.65-19.113,19.493-26.38,15.293c-7.266-4.198-7.248-17.84,0.053-30.49c7.302-12.651,19.113-19.485,26.38-15.294
		C232.183,417.133,232.166,430.782,224.864,443.424z M229.655,324.088c-7.302,12.65-19.103,19.484-26.371,15.293
		c-7.276-4.2-7.257-17.849,0.044-30.491c7.302-12.641,19.112-19.492,26.388-15.293C236.984,297.797,236.957,311.446,229.655,324.088
		z M329.25,381.585c-7.302,12.651-19.113,19.485-26.38,15.294c-7.276-4.2-7.258-17.849,0.044-30.491
		c7.302-12.642,19.112-19.493,26.388-15.293C336.57,355.294,336.544,368.944,329.25,381.585z M331.92,277.826
		c-7.302,12.633-19.112,19.484-26.38,15.294c-7.276-4.2-7.25-17.858,0.053-30.5c7.302-12.65,19.113-19.493,26.388-15.293
		C339.249,251.518,339.222,265.176,331.92,277.826z"/>
</g>
</svg>